<svg xmlns="http://www.w3.org/2000/svg" xmlns:xlink="http://www.w3.org/1999/xlink" viewBox="0 0 1539.6 1539.6"><style><![CDATA[.e{fill:#eea886}.f{fill:#272a45}.g{fill:#292c47}.h{fill:#f08d29}.i{fill:#ead8cf}.j{fill:#323657}.k{fill:#51578f}.l{fill:#eddad3}.m{fill:#282b45}]]></style><g class="e"><path d="M506.7 135.9s5.8-19.2-2.7-26.8c-7.2-6.5-11.9-20.1-13.4-24.3-1.9-5.6-14.3-20.6-7.2-23.1 7-2.5 21.5 23.8 25.7 28.7 4.1 4.9 9.1-23.3 14.1-27.8S574.5 69 568.8 88s-24.2 35.6-24.6 39.1c-.3 3.5-3.6 14-3.6 14l-33.9-5.2z"/><path d="M520.7 66.7s21.2-57 25.7-59.6c4.6-2.6 7.6-1.3 5.9 4.1l-18.8 55.7S569.9 3.7 573.2.7c1.9-1.7 7.9.5 7.3 3.5-.7 3-33.1 67.7-33.1 67.7s34.1-59 37.6-60.7c3.1-1.5 8.1 2 5.8 6.5L560 78.8s27.5-41.4 31.3-41c2.3.2 7.6 1.9.2 12.3C583.9 60.5 569 87 569 87l-48.3-20.3z"/></g><g fill="#292929"><path d="M121.8 188.9h2.7v68.2h-2.7z"/><path d="M123.2 254.9s-.1 0 0 0c-6.6.3-5.8 33.6-5.8 33.6h11.5s.8-33.3-5.7-33.6z"/></g><path d="M504.2 281.8c16-31.1 67.7-151.4 67.7-151.4l-66.4-10.2s-26.5 60.4-39 102.3c-6.1 20.4-14.4 40.4-16.2 43.6s-86.5 67.4-95.8 72.1c-9.2 4.7-44.7 17-61.7 34.2s-8.7 40.8-8.7 40.8c36 46.3 102.4-13.9 102.4-13.9s95.3-73.9 117.7-117.5z" class="f"/><path d="M370.8 1456.9s22.8 24 46 29 39.4 11.4 39.6 25.2-66.7 22.8-93.2 9c-39.6-20.7-43.6-14.5-48-24.8s5.3-38 5-41.3c-.4-4.1 50.6 2.9 50.6 2.9z" fill="#202338"/><path d="M368.2 1445.4s3 11.2 2.6 11.5c-.4.2-52.2 6-50.7-3 1.3-7.3 3.1-15.2 3.1-15.2l45 6.7z" fill="#2f6b8c"/><path d="M113 1463.2s16.8 23.3 39.3 28.7c22.1 5.3 36.5 15.4 37.6 28.8s-52.2 30.9-89.7 7.4c-24.6-15.4-33.8-14.6-38.7-24.4-5-9.8 2.6-37.3 2.1-40.5-.7-3.9 49.4 0 49.4 0z" fill="#202338"/><path d="M112.3 1451.6s1.1 11.3.7 11.5c-.4.3-49.8 9-49.5.1.2-7.1 3.1-15.9 3.1-15.9l45.7 4.3z" fill="#2f6b8c"/><path d="M316 771.1l33.8 233c11.5 68.8 15.3 125.7 18.5 161.3 4 44.8 4 274.1 6.8 287.3 2.8 13.1-61.1 6.6-61.1 6.6s-41.4-299.3-53.4-347c-11.1-44.4-43.6-236.4-53.7-224.3-10.2 12.1-41.3 229.6-48.8 264.6s-38.6 311.5-38.6 311.5-51.3 14.1-65.1 3.1l9.3-315.4c1.8-25-15.8-299.8 26.5-410.6 22.4-58.5 225.8 29.9 225.8 29.9z" fill="#9e918d"/><path d="M245.7 353.4s63.4 13.1 71 19.8c8.2 7.1 22.6 76.6 23.4 95.9.9 19.4-7.6 100.2-15.8 130.3s-6.7 178.4-1.5 220.1c0 0-127.7 36.3-253.3 19.9 0 0 21.1-156 16-197.3l-22-174.5s11.1-84.8 22.3-94.3 88.2-19.9 88.2-19.9h71.7z" class="f"/><g class="e"><path d="M219.5 157.2s76.3-28.2 71.5 73.2-22.7 111.7-72.9 97.6c-50.2-14.2-54.4-78.2-60.9-109s37.3-57.4 62.3-61.8z"/><path d="M255.7 367.1s-15.7 10.4-75.3-15.8c0 0 1.7-40.8-10-79-11.7-38.1 79.9 50.8 79.9 50.8-1 .7-1.1 4.5-.6 9.8.5 4.5 1.5 10.1 2.9 15.8 3.4 12.8 3.1 7.3 3.1 18.4z"/></g><path d="M167.8 269.3s-.2-27.1 11-29.6c11.3-2.5 17.1 13.2 17.1 13.2l9.1-.5s-8.1-27.5 2.6-33.7c10.7-6.3 75-.8 83.1-10s-3.6-64.1-21.2-69.5c-17.5-5.4-65.4-16.3-95.8 10.8 0 0-26.5.5-27.5 22-1.1 21.4 12.4 82.6 21.6 97.3z" fill="#525252"/><path d="M252.7 348.7c-59.2-9.9-68-43.6-68.1-44.1 23 29.7 65.2 28.4 65.2 28.4.4 4.5 1.4 10 2.9 15.7z" fill="#a77860"/><path d="M191.6 228.2c-3.4-8.9-22.4-7.8-20.5 6.4s17.7 36 24 31.9c6.4-4.1 1.2-26-3.5-38.3z" class="e"/><g class="f"><path d="M317.5 372.5s36.1 48.3 22.7 173c-24.2 225.6 39 587.5 39 587.5l-65.2 10.9s-62.3-453.2-46.4-621.2c7.2-76.5 28.7-102-5.2-165.7 0 0 33 1.1 55.1 15.5z"/><path d="M156.5 356s103.2 104.2 111.3 183.3c8.1 79 46.2 604.7 46.2 604.7l-270.6-4.8 28.1-317.8c5.5-35.3 16.9-238.2-8-332.4-13.4-50.6 2.5-114.8 33.1-121.8 30.5-7.1 59.9-11.2 59.9-11.2zm113.6 1.7s27.7 8.9 67.5-12.1-38.1 57-38.1 57l-29.4-44.9zm153.6 11.4s-80.3 96.2-80.6 118.9c-.4 22.7-19.1-68-19.1-68l99.7-50.9zM293.3 188.5l67.7-27.4-125-55-159.7 82.4 74.9 27.7z"/></g><path d="M156.5 356s61.2 41.2 105.9 51.9c1.9.4 0-50.9 0-50.9s-37.5-15-105.9-1z" fill="#c4b5ae"/><path d="M199.2 349.6s24.3 11.6 43.1 13.4c0 0 9.8-3.6 10.3-14.3l-53.4.9z" class="e"/><path d="M262.4 407.9V357l47.1-.5-47.1 51.4z" class="h"/><path d="M252.7 348.7s-3.3 10.8-10.3 14.3l22 23.5-1.9-29.4-9.8-8.4z" class="i"/><path d="M293 201.5s-65.5-7.5-138.9 26.1l-6.3-22.6s82.7-31.1 146.6-23.4l-1.4 19.9z" class="k"/><path d="M120.7 369.4s39.7 10.9 17.9 83.9c-17.1 57.1-19.4 69.4-19.4 69.4l-91.7-22.9s26.9-125.5 70.8-132.2c-.1-.1 13.9-2.1 22.4 1.8z" class="f"/><path d="M21.6 905.9s-2.8-6.1-2.8-9.3c0 0 .6-5.9.7-10.1v-3.3c-.3-3.2-1.9-10-.6-17.8 1.4-7.8 16-39.9 16-39.9l19.6 3 18.7.2s17.4 45.2 16.9 52.7c0 .7-.1 1.4-.2 2.1-1 6.2-4.3 10.5-5.2 13.7-.3 1.2-4.4 12.7-7.9 13.9-4.8 1.7-8.8 1-11.5-1.1 0 0-9.5 3-15.7.5 0 0-8.6 3-15.5-2.3.1 0-9 2.1-12.5-2.3z" class="e"/><path d="M125.4 374.3c8.3 3.2 13.3 4 8 46.6-2.1 17.1-11.1 70.1-16.7 80s-32.3 86.3-34 95.9c-2.6 14-3 119.2-3 124.4l.3 112.7-67.3 9.7-9-130.5C.4 681.2 0 614.7 5.9 579c6.7-40.7 31.6-120.5 35.1-126.9s29.4-99.1 84.4-77.8z" class="f"/><path d="M99.7 537.5S80 593.8 79.5 601.9s-2.2 208.4-2.2 208.4 21.1-206.7 22.4-272.8z" fill="#181a2b"/><path d="M173.5 353l88.9 54.9-175-36.7s8-9.5 86.1-18.2z" class="h"/><path d="M180.4 340s31.1 18.8 61.9 23L231 394.1 173.5 353l6.9-13z" class="i"/><path d="M1298.1 296.7s16.6-31.5 11.9-64c-4.7-32.6-33.3-81.3-91.3-68 0 0-43.6 66-47.2 68.5 0 0-8.1 72.5-6.3 112 2.5 51.8 28.4 81 42.7 126.1s38.1 1.5 38.1 1.5l40.7-2-21.1-166.5 32.5-7.6z" fill="#2e334d"/><path d="M1201.9 172.1s-29 9.4-26.1 47.3c0 0 5-32.6 26.1-47.3z" fill="#717bc7"/><path d="M1402 641.9c-2.6-12.5-14.5-30.2-15.9-48.2s-25.4-88.4-25.8-99-12.5-58.9-23.9-79.8c-11.7-21.3-49.6-34.2-49.6-34.2s19.6 104.6 19.4 126.4c-.1 6.5 2 18.4 5 32.1 0 .1 0 .2.1.3.6 3 .7 5.6.4 7.9-1 7.8-5.4 13-2.7 23.3l-.1 5.5c.3 1 .5 2.1.8 3.1 3.9 14.8 7.4 30.6 9.1 37.6.3 1.5.6 2.6.8 3.2 2.6 9.6-.6 4.5 4 28.4-.1.2 83.3 17.5 78.4-6.6z" class="g"/><g class="e"><path d="M1145.4 709.6s-32.4 42.1-41.2 92.1 5.2 217.8 4.8 242.5-23.4 86.2-18.8 132.8 43 280.9 43 280.9l30.2-5.6-.7-262.7c2.9-19.5 8.6-90.8 9.8-98.8s73-219.3 73-255.4c-.1-36-21.9-184.6-100.1-125.8z"/><path d="M1308.3 726l59.6 231.4c6.3 28.2 15.5 51.4 15.5 63.3 0 27.7 10.8 81.2 10.8 81.2l58 327.7h-33.3s-82.3-214.2-91.5-262.8c-7.1-37.4-8.5-84.3-14.2-100.4s-103.3-191.8-103.3-191.8-65.8-207.6 98.4-148.6z"/></g><path d="M1383.3 1020.8s-123.2 52.9-306.6 52.9c0 0 8-238.9 34.7-298.8 26.7-59.8 201.1-32.9 201.1-32.9s70.8 228.7 70.8 278.8z" class="g"/><path d="M1248 365.2s28.4 13.4 38.3 15.4 48.2 51.7 54.9 69.9 0 45.4-13.8 77.4-.8 42.7-7.1 74.7-6.3 119.2-5.1 137-173.3 62.2-210 29.8c0 0 24.5-85.7 44.5-129.1 3.9-8.4 5.9-45.6 1.5-56.7-4.3-11.1-53.3-93.6-53.3-93.6s-10.1-82.4 11.3-99c18.6-14.4 75.7-20.9 84.8-24.1 9-3.1 35.4-4.4 54-1.7z" class="l"/><path d="M1327.4 528c-13.8 32-.8 42.7-7.1 74.7s-6.3 119.2-5.1 137-166.9 67.7-203.7 35.3c0 0 3.2-38.9 15.3-74.6l4.6-13.3c6-17 12.3-33.7 18.3-46.6 3.9-8.4 5.9-45.6 1.5-56.7-1.7-4.3-10-19.2-19.6-35.9l-12.3-21.2-21.4-36.5s-10.1-82.4 11.2-99c7.3-5.7 20.6-10.1 34.5-13.6 5.2-1.3 10.6-2.5 15.8-3.5 16.1-3.3 30.3-5.5 34.5-6.9 9.1-3.2 35.5-4.5 54.1-1.8 0 0 28.4 13.4 38.3 15.4s48.9 50 55.6 68.2c6.7 18-.7 47-14.5 79z" class="g"/><path d="M1261.5 332.4l-1.6 15.8-1.3 13.9c-1.2 14.8-2.2 31.3-1.7 39.5 0 0-29.6 29.6-63.2-34.6 0 0 14.1-26.5 3.5-62.5-10.5-36.1 64.3 27.9 64.3 27.9z" class="e"/><path d="M1171.2 371.6l94.7 55.7c0-4 7.9-50.8 7.9-50.8s-13.9-8-17.8-8.7c-3.9-.8-61.7-1.5-61.7-1.5l-23.1 5.3z" class="i"/><path d="M1423.8 1426.2s11.6-10.3 17.4-11.5 11.3-.9 13.7 1.8 9.5 13.7 13.3 17.1 31 29.6 37.4 31.4 34.2.3 32.6 16.5c-1.5 16.2-11.2 16.6-51.4 12.9-40.3-3.7-39.4-5.4-62-10.2-22.6-4.9-21.6-18.9-17.7-32.6 4-13.7 10.1-21.8 9.2-25.9-.8-4 7.5.5 7.5.5zm-284.4 29.3s12.9-5.8 21.4-5.5c8.6.3 7.6 5.6 9.8 8.7 2.1 3.2 22.3 33.8 27.8 39.3s25.1 11.3 22.3 25.1-27.5 19.3-58.1 15.3-31.7-30.3-36.6-36.7-2.3-49.9 2.6-52.8c5-2.9 10.8 6.6 10.8 6.6z" fill="#fccca2"/><path d="M1364.5 638.7s18.5-.3 16.8-6.9c-1.7-6.7-14.7-3-14.7-3l-2.1 9.9z" class="e"/><path d="M1260.1 346.6l-1.4 15.5c-28.5-10.3-40.2-29.5-40.2-29.5 7.3 6 41.6 14 41.6 14z" fill="#c48a6f"/><path d="M1112.8 507.1s-.7 111.7-17.3 295l-38.6 417.3s237.1 16.2 395.3-20.6c0 0-104.4-409.1-108.3-485.2-3.9-76 5.4-174-1-232.9-6.5-58.8-230.1 26.4-230.1 26.4z" class="g"/><path d="M1413.1 565.7l24.7-10.3c3.3-1.3 13 .9 23.8 4.4 10.9 3.5 24 13.1 24.5 15s2 3.6.3 8.3c-1.7 4.8-5.7 7.9-5.7 7.9s.7 6.8-4.5 10.3c0 0 .4 6.5-6.2 9.4 0 0 .2 6.3-4.8 8.1 0 0-9.7-2.2-13.5-2s-22.8-7.6-41-16.2c.1 0-21.1-6.8 2.4-34.9z" fill="#db9c7c"/><path d="M1470.1 517.9l-16.2 204.5-131.3-10.4 11.1-204.9z" class="l"/><g class="e"><path d="M1291.5 633.5s5.3 1.5 9.4-.3c7.1-3.2 11.7-14.5 22.2-10.8s8.2 40.4 4.1 46.4-19.6 5.4-40.7-5c-20.9-10.5 5-30.3 5-30.3z"/><path d="M1319.4 621.7s16.5-1.5 35.1-.8c16.3.6 36.5 3.6 36.4 7.7-.1 6.2-16.4 1.9-32.6 2.4-14.9.5-11.9 2.9-11.9 2.9s-.8-.7 15.6 1.9c17.6 2.9 36.4 6.7 36.4 10.1 0 4.2-.4 4.7-6.9 4.7 3.8.8 4.1 2 3.9 3.6-1 8.4-27.5 8.2-38 8.2 8.1.1 14 1 10.1 5.8-4.5 5.4-42 3.5-55.5 4.1-14.7.7 7.4-50.6 7.4-50.6z"/></g><path d="M1123.6 382c11.9-1 40.3 12.8 40.6 45.7.3 24.6.4 45.8-.4 55.6-.8 9.7-.9 74.9 4.8 81 7.3 7.7 48.5 27.7 52.3 30.1 12.9 8.3 76.8 35.2 76.8 35.2l-30.1 120.8-160.2-109.5c-9.6-7.2-17.7-35.4-21.6-66.2-4-31.3-1.8-106-1.3-112.3.6-6.3-4.1-76.8 39.1-80.4z" fill="#3c3f66"/><path d="M1483.3 573.7s-27.3-8-29.6-3.9c-3.2 5.7.1 7 .1 7l-13 1.8s-7.9 6 1 12.9c0 0-8 4.9 1.4 10.5 0 0-3.8 5.6.1 8.9s22 7.9 22 7.9 4.2-.8 4.8-8.1c0 0 6.5-2.5 6.2-9.4 0 0 4.9-2.8 4.5-10.3 0 0 10.4-7.1 5.4-16.2-.1-.1-1.7-.8-2.9-1.1z" class="e"/><g fill="#292929"><path d="M1136.8 198.1h2.7v66.6h-2.7z"/><path d="M1138.2 262.6s-.1 0 0 0c-6.4.3-5.7 32.8-5.7 32.8h11.3s.7-32.5-5.6-32.8z"/></g><g fill="#d14747"><path d="M1440.8 696c0 7.2-5.8 13.1-13.1 13.1-7.2 0-13.1-5.8-13.1-13.1 0-7.2 5.8-13.1 13.1-13.1s13.1 5.8 13.1 13.1z"/><path d="M1434.4 690.5s10.8 34.1 15.5 42l-14.5 4.9s-6.9-25-7.6-43.2l6.6-3.7z"/><path d="M1421.1 692.1s-10.8 34.1-15.5 41.9l14.5 4.9s6.9-25 7.6-43.2l-6.6-3.6z"/></g><g class="h"><path d="M1194.2 366.3l71.6 61-142.2-45.3s24.5-14.7 70.6-15.7z"/><path d="M1265.8 427.3l-7.6-58.8s28.6 7.6 48.6 21.2l-41 37.6z"/></g><path d="M1197 359.2l61.5 5.1-.3 4.1s-52 1.8-64-2.2l2.8-7z" class="i"/><path d="M1253.6 178s61.6 32.7 47.1 106.6-51.9 63.2-58.9 61c-7-2.1-45.5-15-51.4-69.6s7-116.2 63.2-98z" class="e"/><path d="M1283.4 229s-13.6 42.8-71.8 51.4-22.5-81.8-22.5-81.8 18.6-32.5 47.2-27.5c41.8 7.3 64.4 51 66.6 71.4 2.3 20.3 3.7 26.2 3.7 26.2s-10.4-32.2-23.2-39.7z" fill="#2e334d"/><path d="M1304.4 197.8l66.1-26.8-122.1-53.8-156.1 80.6 74.5 27.7z" class="f"/><path d="M1303.7 211.1s-60.9-6.9-132.4 25.9l-8.8-22.7s80.5-30.3 142.8-22.7l-1.6 19.5z" class="k"/><path d="M756 142.5l152.7 77-165.3 33.3-153.6-69.5L756 142.5z" class="f"/><g fill="#d99979"><use xlink:href="#B"/><path d="M554.3 579s-15.3-1.3-32.5-.7c-15.1.5-33.8 3.3-33.7 7.1.1 5.8 15.2 1.7 30.2 2.2 13.8.4 11 2.7 11 2.7s.8-.7-14.4 1.8c-16.3 2.7-33.7 6.2-33.7 9.3 0 3.9.3 4.3 6.4 4.4-3.5.8-3.8 1.8-3.6 3.3.9 7.8 25.4 7.6 35.2 7.6-7.5.1-13 1-9.4 5.4 4.1 5 38.8 3.3 51.3 3.8 13.7.6-6.8-46.9-6.8-46.9z"/></g><path d="M744.9 407.1l4.6 150.3s6.5 18.6-36.1 25.5c-43.5 7-145.4-3-145.4-3s-5.7 96.5 0 96.8c16.6.9 180.8-41.3 229.7-51.6 38.8-8.1 14.5-213.9 14.5-213.9l-67.3-4.1z" class="m"/><use xlink:href="#C" class="g"/><path d="M848.5 1455l2.8 19.5s40.5 7 52.7.7l-3.3-20.3-52.2.1z" fill="#3d416b"/><path d="M768.6 770.7c-1.1 13.5-2 43-2.7 74l-.4 20.7-1.2 80.3c2 52.5 10.3 166 26.1 191.5 21.2 34.4 45.9 320.8 45.9 320.8l78 8.3s4.8-191.5-6.8-241.5c-13-55.8-38-132-23.7-182.8 9-31.9 27.6-134.5 27.6-134.5s20-115.4-.8-203.9c-5.2-22-142 67.1-142 67.1z" fill="#62626b"/><use xlink:href="#C" x="-134" class="g"/><path d="M714.5 1455l2.8 19.5s40.5 7 52.7.7l-3.3-20.3-52.2.1z" fill="#3d416b"/><path d="M697.7 1463.9h80s26.8-153.5 29.1-221.1c.2-7.3.2-13.7-.2-18.7l-4.5-46.3v-.3c-4.7-48.4-8.2-101.6 8-137.6 13.6-30.2 47.2-129 47.2-129s36.8-111.2 29.3-201.9c-1.9-22.6-144 34.3-144 34.3-3.1 13.2-12.6 54.7-16 85.5-19.2 176-12 290.6-12 290.6 10.9 38.8-16.9 344.5-16.9 344.5z" fill="#62626b"/><path d="M755 368s-17.5 65-23.2 100c-5.7 35.1 7.4 131.6 8.5 151.4C743.5 681 745 749 745 749l135.4 59.9s14.4-54.7 24-121.6 2.5-124.8-3.5-163.2C882.1 403.4 806 345 806 345l-51 23z" fill="#cfbeb6"/><g class="e"><path d="M682.5 236.8s-15 29.8-7 34.1c6.6 3.6-6.7 32.8-8.4 37.5-1.7 4.8 12.1 7.8 15.1 10.8s12.7 40 24 40.8 61.5-18.1 74.9-32.7 22.8-79.4 12.7-106.3c-10-26.9-84.7-36.2-111.3 15.8z"/><path d="M728.6 339l2.4 9 2 7.8 1.7 6.8.6 2.6 2.7 12.3c2.2 10.6 3.8 20.9 3.5 26.8-.7 16.1 57.1-60 57.1-60S785.1 294 779.2 236s-50.6 103-50.6 103z"/></g><path d="M679.5 243.3s-5.9-31.2 23-55.5c28.8-24.3 73.2 15.5 79.4 16.9s40.5 2.7 25.3 64.1c-13.5 54.6-14.4 51.4-14.4 51.4s-13.4-26.5-19.9-30.9c-10.2-6.9-32-4.6-32-4.6s9.6-27.8-6.8-31.2c-16.4-3.6-38.3-16.7-54.6-10.2z" class="j"/><path d="M757.8 268.4c1.3-3.8 5.5-20.1 19.8-11s-7.5 40.3-9.9 40.7c-2.5.5-21 2.3-9.9-29.7z" class="e"/><path d="M736.4 770.9l7.4-33.3 182.7 30.2-1.9 23.4c0-.1-131.6-7.9-188.2-20.3z" fill="#23263d"/><path d="M738.8 513.6c2.4 13.9 4.5 28 6.2 42 3.6 28 6 56.2 7.6 83.6l.5 8.6.6 13.8.6 18.1c3.7 124.8 50.2 223.1 50.2 223.1s92.4 6.3 116.1-6.6c0 0 13.8-130.2 6.2-269.1l-2.7-39c-9.4-112.5-64.3-156.6-118.6-243.1-1.5 1.5-79.3 95.4-66.7 168.6z" class="j"/><path d="M732.4 353.5c.9 4 2 8.2 3 12.3 17-11.6 35.3-38.7 37.6-44.2-9.4 13.8-40.1 31.6-40.6 31.9z" fill="#a77860"/><path d="M753.1 632.1l.5 8.3.6 13.4c20.7-4.2 60.1-14.7 72-35.5 16.1-28.4-24.1-94.7-25-96.2.4 1.8 17.2 83.5 0 91.6-11.3 5.4-34.5 12.6-48.1 18.4z" class="m"/><path d="M415 507.1l15 189.1 121.4-9.6-10.3-189.5z" fill="#bf2e2e"/><g class="e"><use xlink:href="#B" y="24"/><path d="M554.3 603.1s-15.3-1.3-32.5-.7c-15.1.5-33.8 3.3-33.7 7.1.1 5.8 15.2 1.7 30.2 2.2 13.8.4 11 2.7 11 2.7s.8-.7-14.4 1.8c-16.3 2.7-33.7 6.2-33.7 9.3 0 3.9.3 4.3 6.4 4.4-3.5.8-3.8 1.8-3.6 3.3.9 7.8 25.4 7.6 35.2 7.6-7.5.1-13 1-9.4 5.4 4.1 5 38.8 3.3 51.3 3.8 13.7.5-6.8-46.9-6.8-46.9z"/></g><path d="M688.4 1207.8c100.3 10.4 251.7 0 251.7 0 4-71.1 13.7-207.3 1.7-495.1C929.7 424.9 806 345 806 345l-67.6 86.5c-20.8 87.7 4.6 249.5 2.9 267-.1 1.5-.6 6.2-1.4 13.8l-51.5 495.5z" class="j"/><path d="M796.5 336.2s-35.7 45-59.1 57.3l.9 37.9L806 345l-9.5-8.8z" class="l"/><g class="h"><path d="M824.985 287.33l8.445-74.52 2.98.338-8.445 74.52z"/><path d="M828.3 282.2h.1c7.8 1.3 2.3 41.8 2.3 41.8l-7-.8h-.1l-7-.8c.1 0 3.8-40.7 11.7-40.2z"/></g><path d="M682.9 207.2l-8.8-20.1 77.7-25.2 77.9 53-17.3 11.6z" class="f"/><path d="M680 207.9l-.7 22.9s43.8-9.9 130.9 22.1l6.4-24.8c.1-.1-78.4-30.8-136.6-20.2z" class="k"/><path d="M739.8 712.2s52.8 4.1 58.8-16 21.6-121.5 21.6-121.5l-78.9 123.1c-.2 1.5-.7 6.9-1.5 14.4z" class="m"/><path d="M833.7 488.3c4.5-16.9 15.9-92-26.6-99.1-42.5-7.2-52 43.1-59 81.1-7.3 39.8-14.9 140.3-22.7 143.3s-60.8 3.1-71.8 2.1c-11.1-1-80.7-9-86.3-9.1-5.5-.1-2.3 125.8-2.3 125.8l211.6-40.9c33.1-5.1 57.1-203.2 57.1-203.2z" class="j"/><path d="M738.4 431.4L806 345s20.6 4.6 39.8 22.6 90.7 94.7 88.4 259c0 0-47.1-230.6-114.1-252.6 0 0-25.8-2-81.7 57.4z" class="h"/><defs ><path id="B" d="M580.1 590s-4.9 1.4-8.7-.3c-6.5-3-10.8-13.4-20.6-10-9.7 3.4-7.6 37.4-3.8 42.9s18.2 5 37.6-4.7c19.5-9.6-4.5-27.9-4.5-27.9z"/><path id="C" d="M851.3 1474.5s-30 18.1-43.7 24.9c-13.6 6.8-66.8 9.3-72 14.3s-3.1 20.8 5.8 22.3c8.8 1.5 73.6 6.5 95.1 1.3 21.5-5.3 62 2.7 70.9-.4s2.6-50.9-1-61.6-55.1-.8-55.1-.8z"/></defs></svg>