<?xml version="1.0" standalone="no"?>
<!DOCTYPE svg PUBLIC "-//W3C//DTD SVG 20010904//EN"
 "http://www.w3.org/TR/2001/REC-SVG-20010904/DTD/svg10.dtd">
<svg version="1.0" xmlns="http://www.w3.org/2000/svg"
 width="1280.000000pt" height="1230.000000pt" viewBox="0 0 1280.000000 1230.000000"
 preserveAspectRatio="xMidYMid meet">
<metadata>
Created by potrace 1.15, written by Peter Selinger 2001-2017
</metadata>
<g transform="translate(0.000000,1230.000000) scale(0.100000,-0.100000)"
fill="#2a4587" stroke="none">
<path d="M9725 12279 c-22 -12 -56 -34 -76 -50 -19 -15 -85 -55 -147 -88 -201
-108 -343 -211 -445 -320 -183 -198 -246 -396 -302 -951 -14 -135 -28 -253
-31 -262 -3 -9 -62 -50 -132 -91 -147 -87 -341 -222 -349 -243 -13 -34 14 -36
138 -11 168 35 242 46 319 49 l65 3 17 -83 c28 -129 55 -201 109 -283 98 -150
101 -176 73 -570 -24 -337 -11 -480 62 -691 66 -189 170 -367 266 -453 61 -55
132 -82 256 -97 53 -6 98 -12 100 -13 1 -1 -15 -53 -37 -116 -26 -73 -48 -120
-63 -132 -13 -10 -76 -52 -141 -92 -217 -136 -424 -305 -538 -437 l-63 -73 66
-7 c115 -11 112 -8 104 -97 -3 -42 -12 -98 -19 -126 -13 -50 -13 -50 -161
-150 -82 -55 -158 -112 -168 -126 -28 -37 -32 -95 -13 -171 l16 -67 -107 -208
c-59 -114 -109 -210 -111 -212 -1 -2 -11 3 -20 11 -31 27 -184 105 -298 151
-225 92 -549 186 -847 247 -132 27 -150 25 -163 -17 -11 -40 -21 -41 -71 -5
-33 24 -45 44 -73 118 -51 135 -85 195 -140 252 -105 107 -261 321 -285 390
-25 72 -100 63 -133 -16 -38 -90 29 -308 148 -484 22 -31 39 -59 39 -61 0 -2
-61 -7 -137 -11 -149 -8 -185 -19 -242 -77 -54 -53 -64 -84 -58 -167 4 -58 2
-80 -10 -98 -12 -19 -14 -40 -9 -92 7 -77 7 -70 0 -143 -4 -41 -1 -65 10 -88
11 -20 14 -43 10 -68 -12 -78 68 -148 161 -139 28 2 106 9 175 15 143 12 191
20 345 54 61 14 133 28 161 32 l51 6 14 -82 c12 -72 17 -85 39 -95 14 -7 97
-18 185 -24 317 -23 738 -81 980 -135 134 -31 335 -94 335 -106 0 -19 -115
-331 -185 -504 -94 -231 -177 -414 -271 -594 -60 -115 -73 -149 -66 -165 7
-16 51 -35 188 -81 l179 -60 18 -55 c30 -90 153 -579 211 -840 150 -671 264
-1343 335 -1973 16 -141 32 -260 35 -266 4 -5 22 -15 41 -21 23 -8 35 -18 35
-30 0 -29 -39 -147 -53 -157 -41 -33 -284 -90 -480 -114 -78 -9 -103 -16 -119
-33 -58 -61 -77 -189 -37 -255 l20 -34 77 6 c42 3 195 31 339 61 145 31 312
62 373 69 61 8 115 18 121 24 13 13 13 6 3 239 l-7 181 33 6 c18 4 45 7 61 7
15 0 31 4 34 10 3 5 -26 168 -64 362 -172 869 -196 1026 -216 1433 -20 390
-55 1173 -55 1210 1 20 30 -42 89 -185 243 -589 464 -1083 635 -1420 249 -488
319 -644 435 -969 71 -199 165 -511 183 -606 l12 -65 39 -7 40 -6 -7 -96 c-9
-137 -26 -197 -71 -256 -50 -65 -75 -124 -82 -189 -4 -37 -1 -55 8 -62 40 -32
304 -54 414 -35 72 13 166 50 197 78 40 36 8 157 -66 248 -39 48 -89 176 -115
293 l-9 43 39 20 c21 10 39 22 39 26 0 12 -251 885 -331 1153 -44 146 -113
364 -154 485 -96 287 -175 651 -244 1120 -46 313 -79 630 -68 658 8 21 340 97
422 97 12 0 30 9 40 20 17 19 17 26 -4 182 -89 674 -108 1416 -46 1842 8 54
16 100 18 102 2 2 9 -27 17 -64 52 -267 210 -673 295 -758 51 -51 269 -93 389
-74 144 22 232 83 265 183 67 203 54 449 -60 1164 -27 172 -56 363 -64 424 -9
66 -22 125 -33 143 -12 21 -59 56 -148 108 -71 43 -133 79 -138 81 -5 1 -1 17
8 35 9 17 32 77 50 133 l34 101 154 102 c188 126 458 290 768 466 531 302 678
392 706 436 13 19 15 38 10 92 -23 220 -102 403 -234 544 -151 159 -351 258
-524 258 -64 0 -70 -2 -107 -35 -22 -20 -88 -95 -147 -168 -332 -406 -511
-616 -762 -890 -108 -118 -149 -156 -161 -151 -57 24 -140 -6 -176 -63 -11
-18 -25 -32 -31 -33 -27 -1 -92 -61 -107 -99 -9 -23 -23 -41 -32 -41 -25 0
-83 -59 -96 -98 -6 -20 -24 -50 -39 -67 -35 -38 -50 -67 -50 -99 0 -24 -28
-52 -120 -118 -31 -22 -40 -24 -77 -16 -31 7 -43 14 -43 27 0 26 42 144 89
252 l42 94 87 50 c154 87 295 187 368 259 85 85 98 116 144 336 32 156 55 231
85 276 15 23 17 24 38 9 37 -26 92 -19 131 15 44 39 55 73 65 202 10 115 30
172 114 310 26 42 47 83 47 92 0 43 -25 121 -55 170 -30 51 -32 59 -23 93 5
21 25 58 44 82 22 29 32 51 28 63 -3 10 4 50 14 90 15 55 19 91 15 147 -6 69
-4 77 31 145 35 69 36 72 21 111 -23 63 -19 75 43 130 32 29 66 68 76 87 18
33 18 34 -4 80 -12 26 -50 79 -84 118 -80 90 -97 125 -146 296 -47 163 -118
311 -193 404 -172 212 -554 408 -857 441 -52 5 -149 17 -215 26 -205 27 -225
27 -270 2z m-470 -6439 c3 -5 1 -10 -4 -10 -6 0 -11 5 -11 10 0 6 2 10 4 10 3
0 8 -4 11 -10z m-40 -279 c3 -5 1 -12 -5 -16 -5 -3 -10 1 -10 9 0 18 6 21 15
7z m-25 -311 c0 -5 -4 -10 -10 -10 -5 0 -10 5 -10 10 0 6 5 10 10 10 6 0 10
-4 10 -10z m-10 -284 c0 -3 -4 -8 -10 -11 -5 -3 -10 -1 -10 4 0 6 5 11 10 11
6 0 10 -2 10 -4z"/>
<path d="M3548 12186 c-51 -35 -122 -78 -158 -96 -263 -131 -483 -322 -572
-497 -95 -184 -135 -363 -178 -797 -11 -113 -24 -216 -29 -229 -6 -16 -37 -39
-88 -67 -96 -52 -314 -196 -367 -242 -29 -25 -38 -39 -33 -52 8 -21 -7 -22
207 23 80 17 186 34 237 38 l92 6 6 -39 c11 -64 46 -196 60 -231 7 -17 33 -60
56 -95 75 -110 89 -155 88 -298 0 -69 -4 -172 -9 -230 -16 -170 -13 -453 5
-548 46 -238 182 -512 315 -636 69 -63 138 -90 272 -105 44 -5 81 -11 84 -14
6 -5 -71 -227 -83 -238 -4 -4 -65 -44 -135 -87 -70 -44 -180 -120 -245 -168
-124 -94 -363 -322 -363 -347 0 -11 18 -16 75 -19 42 -3 78 -8 82 -12 4 -4
-32 -85 -80 -181 -86 -172 -88 -175 -138 -202 -78 -43 -110 -66 -132 -94 -27
-37 -32 -105 -13 -171 l16 -55 -105 -217 c-58 -119 -107 -216 -111 -216 -3 0
-37 18 -75 41 -96 56 -268 128 -446 188 -158 52 -523 147 -686 177 -107 19
-117 17 -117 -33 0 -29 0 -29 -59 5 -47 26 -51 32 -87 122 -59 150 -82 190
-156 268 -90 95 -219 270 -258 349 -37 74 -58 90 -97 71 -77 -38 -89 -140 -35
-286 36 -98 100 -219 144 -274 17 -21 28 -41 26 -44 -3 -2 -68 -9 -144 -15
-159 -12 -202 -29 -254 -100 -43 -60 -54 -100 -41 -158 8 -40 7 -57 -4 -85
-18 -41 -19 -94 -5 -132 8 -20 7 -41 -1 -76 -11 -43 -11 -53 8 -100 14 -35 19
-66 16 -89 -10 -72 39 -123 129 -135 46 -6 97 2 222 35 93 25 310 57 447 66
l96 6 14 -83 14 -83 45 -7 c25 -4 139 -17 253 -28 500 -49 983 -141 1169 -223
l57 -26 -29 -82 c-17 -46 -35 -86 -40 -89 -5 -3 -14 -29 -19 -57 -26 -136
-259 -656 -415 -926 -31 -53 -56 -100 -56 -105 0 -4 21 -13 48 -20 91 -24 327
-104 339 -116 14 -14 65 -194 148 -526 196 -782 347 -1609 434 -2370 l27 -235
42 -15 c48 -16 47 -9 15 -120 -10 -37 -27 -66 -50 -87 -44 -42 -156 -96 -254
-122 -86 -24 -255 -42 -314 -35 -31 5 -46 1 -68 -16 -44 -35 -71 -96 -71 -165
-1 -82 20 -115 73 -115 54 0 174 24 406 80 233 56 330 76 440 90 117 15 118
15 104 179 -11 128 -9 254 3 266 3 3 29 8 57 12 28 3 53 9 55 12 2 3 -14 92
-36 196 -110 530 -206 1066 -227 1260 -15 136 -62 1292 -61 1485 l1 65 65
-155 c280 -663 469 -1077 714 -1565 126 -250 235 -482 280 -595 93 -236 207
-582 255 -775 21 -82 43 -153 49 -157 6 -4 22 -8 35 -8 l24 0 -6 -97 c-10
-160 -31 -247 -70 -296 -51 -62 -100 -167 -79 -167 5 0 14 17 21 38 23 67 84
146 125 159 57 20 214 36 275 28 119 -13 119 -13 150 -69 16 -28 35 -70 42
-93 12 -41 29 -58 29 -29 0 8 -31 75 -69 150 -67 133 -141 331 -141 378 0 18
9 29 36 41 23 12 34 23 31 32 -3 7 -11 33 -17 57 -97 363 -365 1275 -455 1545
-43 127 -91 300 -115 405 -89 407 -179 1000 -197 1305 l-6 111 44 12 c100 27
327 70 371 70 26 0 50 4 53 10 3 5 -3 70 -14 143 -23 146 -53 408 -73 617 -8
83 -13 296 -13 550 0 342 3 439 18 551 10 74 21 148 26 165 7 26 9 22 26 -46
58 -242 154 -486 250 -636 30 -47 37 -52 106 -72 170 -50 307 -50 418 -1 127
56 164 128 180 348 14 192 -10 459 -85 940 -19 124 -46 304 -59 400 -17 128
-28 180 -42 200 -11 14 -74 59 -140 100 l-121 73 34 80 c19 44 41 104 50 134
15 52 20 57 112 123 338 239 855 551 1372 826 91 48 167 90 169 92 9 7 -20
160 -50 263 -91 320 -285 549 -524 622 -88 27 -206 29 -252 5 -17 -9 -121
-124 -235 -259 -315 -376 -504 -589 -756 -849 l-102 -106 -49 5 c-63 6 -114
-19 -148 -70 -14 -21 -32 -38 -39 -38 -23 0 -83 -60 -95 -95 -9 -23 -22 -38
-42 -44 -35 -13 -87 -67 -87 -91 0 -10 -18 -40 -40 -66 -23 -28 -43 -65 -47
-88 -7 -31 -22 -51 -75 -98 -66 -59 -67 -59 -113 -52 -26 3 -49 12 -51 19 -6
15 59 192 107 289 l34 70 125 74 c145 87 291 193 343 251 53 59 72 103 101
236 48 222 67 290 92 334 25 46 25 69 -1 35 -27 -35 -53 -118 -85 -269 -43
-205 -54 -239 -94 -293 -62 -85 -233 -210 -456 -332 -193 -106 -274 -129 -496
-137 -158 -6 -275 7 -363 39 -113 42 -237 205 -328 429 -95 233 -114 387 -92
720 16 228 18 428 6 475 -8 31 -7 32 70 72 160 83 345 142 445 142 47 0 47 0
58 -41 26 -94 40 -211 40 -324 0 -145 -7 -195 -29 -202 -54 -18 -151 -69 -187
-98 -42 -35 -94 -122 -94 -158 0 -10 -8 -31 -18 -45 -28 -41 -43 -92 -36 -127
11 -58 85 -115 149 -115 15 0 49 -7 76 -16 92 -30 210 -4 298 65 l38 30 59
-24 c80 -33 170 -34 239 -1 28 13 58 32 67 42 46 52 61 145 34 209 -15 35 -61
73 -74 60 -4 -4 -1 -10 7 -13 78 -28 87 -175 15 -247 -64 -64 -159 -77 -276
-39 -58 19 -63 27 -48 65 7 16 10 32 7 35 -3 4 -12 -9 -20 -28 -20 -48 -97
-112 -158 -131 -192 -63 -365 61 -346 248 7 69 35 121 92 174 87 80 187 109
305 88 31 -5 42 -5 35 2 -6 6 -35 14 -65 18 -40 6 -56 13 -58 26 -3 14 5 17
50 18 46 0 50 2 28 10 -14 6 -36 8 -50 5 l-25 -4 -1 156 c0 213 -33 360 -116
526 l-30 59 -101 -6 c-165 -9 -343 -71 -462 -162 -37 -29 -50 -34 -56 -23 -24
39 -86 365 -72 379 4 4 62 23 128 43 408 119 765 179 1250 210 l220 14 159 62
158 62 57 -29 c49 -25 56 -31 53 -55 -4 -36 12 -65 49 -84 27 -13 30 -19 24
-42 -12 -44 -8 -61 25 -98 29 -34 30 -37 16 -60 -26 -39 -20 -70 18 -92 32
-19 33 -23 29 -64 -4 -35 -1 -47 16 -62 12 -11 21 -24 21 -30 0 -6 9 -22 20
-36 15 -19 18 -35 13 -68 -4 -32 -2 -47 12 -62 17 -19 16 -21 -27 -69 -45 -50
-126 -197 -114 -208 3 -4 7 -4 9 -2 1 2 20 40 42 84 43 88 115 170 158 180 62
16 114 -24 147 -111 30 -82 27 -135 -14 -203 -89 -148 -107 -198 -121 -326 -7
-68 -19 -135 -29 -152 -47 -91 -153 -81 -188 17 -5 17 -14 30 -19 30 -17 0 21
-74 51 -102 37 -34 75 -36 121 -5 51 33 70 82 79 202 10 120 31 179 108 308
56 93 61 117 38 202 -17 64 -41 110 -67 128 l-20 15 20 33 c12 19 21 47 21 63
0 19 12 42 35 67 19 21 32 45 29 52 -3 8 4 37 15 65 16 41 19 64 14 122 -6 69
-5 75 32 145 l38 74 -17 41 c-23 59 -21 69 28 116 46 44 86 110 86 142 0 25
-46 94 -110 167 -66 74 -91 127 -135 289 -77 281 -192 446 -415 595 -223 149
-448 231 -695 251 -67 6 -159 17 -205 25 -156 27 -175 24 -282 -49z m239 40
c1 -1 -15 -36 -37 -77 -56 -108 -80 -216 -80 -366 0 -68 3 -123 8 -123 4 0 8
60 8 133 2 111 6 146 28 222 35 118 83 200 117 199 89 -4 354 -36 401 -49 309
-80 616 -270 746 -462 75 -111 118 -215 172 -416 27 -103 48 -143 120 -226 53
-62 100 -128 100 -141 0 -3 -63 -6 -139 -7 -235 -3 -543 -69 -801 -173 -165
-66 -182 -70 -385 -81 -500 -26 -939 -105 -1383 -250 -155 -51 -353 -129 -442
-174 -52 -26 -80 -32 -80 -15 0 22 296 218 438 290 217 110 828 234 1408 285
215 19 309 38 149 30 -392 -20 -1005 -122 -1363 -226 -73 -22 -135 -39 -138
-39 -4 0 -4 15 0 33 3 17 15 124 26 237 62 627 152 840 453 1069 80 61 296
195 303 188 2 -1 -10 -29 -26 -62 -52 -107 -95 -355 -72 -415 7 -18 10 4 15
90 7 138 26 219 78 325 33 68 46 85 90 112 28 18 49 27 46 20 -54 -125 -69
-168 -87 -257 -33 -156 -31 -520 2 -520 5 0 7 8 4 17 -14 35 -18 300 -7 393
21 167 72 322 133 403 21 28 86 46 143 40 28 -3 51 -7 52 -7z m1409 -1359 c-5
-26 -1 -40 19 -67 14 -19 25 -43 25 -54 0 -11 7 -48 16 -82 l15 -63 -36 -68
c-35 -66 -36 -70 -30 -143 5 -57 3 -84 -9 -112 -9 -21 -16 -50 -16 -66 0 -19
-11 -39 -35 -62 -24 -23 -35 -43 -35 -62 0 -16 -7 -42 -15 -58 -13 -26 -21
-30 -53 -28 -20 0 -47 -2 -59 -6 -32 -10 -54 26 -46 79 5 37 1 48 -32 94 -30
44 -36 60 -33 94 2 38 -1 44 -29 62 -41 26 -47 42 -28 71 22 34 19 52 -15 90
-26 30 -29 38 -23 83 5 44 3 50 -16 56 -34 10 -51 34 -51 69 0 35 -15 53 -64
78 l-29 15 49 16 c125 42 377 89 508 96 27 1 28 -1 22 -32z m174 20 c0 -17
-48 -83 -83 -116 l-26 -23 -15 36 c-8 20 -20 36 -25 36 -12 0 -15 39 -5 64 8
22 154 24 154 3z m-2719 -551 l4 -44 -76 -6 c-42 -3 -125 -15 -185 -26 -59
-11 -109 -18 -111 -16 -8 8 318 135 348 136 13 0 18 -11 20 -44z m738 -237
c24 -50 41 -92 39 -93 -2 -2 -40 -8 -85 -14 -109 -15 -254 -64 -380 -128
l-102 -52 -50 79 c-28 43 -51 83 -51 89 0 15 76 67 160 110 120 60 255 95 381
99 l46 1 42 -91z m2689 -434 c290 -69 507 -360 585 -788 l15 -78 -42 -23 c-22
-13 -90 -49 -151 -81 -175 -92 -503 -278 -720 -408 -157 -94 -582 -370 -685
-445 -16 -12 -18 -7 -18 75 0 158 -77 316 -231 475 l-55 57 140 143 c222 228
457 494 743 838 124 149 199 229 226 240 32 14 124 11 193 -5z m-2898 -604 c0
-40 24 -94 62 -137 l33 -37 -35 6 c-46 9 -100 66 -100 105 0 36 19 92 31 92 5
0 9 -13 9 -29z m1629 -673 c73 -74 172 -218 201 -295 46 -124 43 -236 -12
-392 -51 -148 -125 -278 -196 -349 -121 -121 -341 -267 -365 -243 -7 7 -12 40
-12 79 1 60 6 79 55 182 71 151 77 210 31 304 -38 77 -119 156 -209 204 -58
31 -62 36 -62 68 0 40 18 80 50 109 21 19 22 19 77 -10 85 -44 185 -127 226
-187 31 -46 59 -122 81 -220 6 -26 26 -40 26 -19 0 19 -51 185 -67 214 -36 71
-126 154 -238 219 -38 23 -71 42 -73 43 -2 2 4 19 12 39 14 34 66 76 95 76 20
0 167 -101 234 -160 31 -29 68 -71 81 -93 25 -44 46 -143 46 -215 0 -23 5 -42
10 -42 14 0 12 81 -4 161 -23 120 -90 200 -263 311 -45 29 -82 59 -82 66 -2
26 33 70 71 92 l39 22 57 -43 c93 -70 230 -208 252 -253 16 -34 50 -203 50
-253 0 -7 5 -13 11 -13 26 0 -18 231 -56 295 -26 46 -152 170 -238 234 -31 24
-57 45 -57 48 0 2 5 13 11 24 16 31 70 59 115 59 36 0 47 -6 103 -62z m-746
-275 c-20 -42 -53 -124 -73 -182 l-36 -106 -84 -34 c-47 -18 -131 -45 -188
-59 l-103 -26 -59 59 -59 58 16 31 c9 17 30 74 48 126 l32 95 39 2 c212 13
353 41 442 88 26 13 50 24 54 25 4 0 -9 -34 -29 -77z m231 -253 c72 -37 171
-132 202 -196 40 -83 33 -148 -34 -289 -29 -61 -52 -119 -52 -128 0 -10 -78
-100 -173 -200 -319 -334 -526 -574 -648 -747 -97 -138 -88 -129 -89 -99 0 46
-31 133 -70 199 -93 157 -256 293 -441 365 -84 33 -222 59 -273 50 -25 -4 -37
-2 -31 3 6 5 96 62 200 127 431 266 977 661 1279 924 42 36 51 40 65 29 9 -7
38 -24 65 -38z m-275 -46 c17 -4 31 -10 31 -14 0 -10 -80 -73 -86 -67 -7 7 8
87 16 87 4 0 22 -3 39 -6z m-76 -82 c-5 -20 -33 -49 -86 -91 -135 -107 -348
-263 -353 -258 -5 5 59 256 75 293 7 15 24 23 72 32 75 14 209 56 259 82 l35
18 3 -23 c2 -13 -1 -36 -5 -53z m-548 -11 c-49 -116 -101 -283 -127 -411 l-23
-113 -74 -50 c-49 -33 -78 -47 -86 -41 -109 82 -196 120 -297 131 l-57 6 47
55 c58 69 198 192 319 283 78 59 319 219 329 219 2 0 -12 -35 -31 -79z m120
29 l52 -51 -46 -169 c-44 -162 -47 -170 -71 -170 -27 0 -93 29 -123 54 -18 14
-17 19 21 133 44 130 96 253 109 253 4 0 30 -23 58 -50z m1494 -277 c183 -102
205 -126 216 -231 3 -37 28 -213 55 -392 69 -451 89 -613 98 -775 10 -197 0
-353 -29 -440 -21 -60 -31 -75 -73 -106 -27 -21 -74 -45 -105 -55 -102 -34
-303 -17 -410 35 -90 43 -250 438 -321 791 -38 189 -69 431 -76 600 l-6 135
98 48 c102 49 238 142 342 234 l60 53 75 -153 c191 -387 306 -765 324 -1070 7
-123 23 -155 23 -46 0 277 -132 728 -331 1129 l-79 159 33 60 c17 34 34 61 36
61 2 0 34 -17 70 -37z m-1653 -98 c26 -14 55 -25 64 -25 37 0 25 -16 -56 -72
-47 -33 -88 -57 -91 -54 -6 6 26 176 33 176 2 0 24 -11 50 -25z m-2947 -201
c45 -88 162 -246 253 -339 76 -80 125 -174 197 -378 49 -142 52 -191 15 -266
-33 -65 -25 -78 11 -17 37 63 42 135 16 210 -12 33 -21 61 -21 62 0 2 21 -6
46 -19 44 -21 46 -23 40 -57 -22 -125 -36 -270 -36 -370 l0 -117 -127 -6
c-113 -6 -271 -26 -342 -44 l-24 -6 23 31 c17 23 21 39 18 74 -4 33 0 50 16
73 16 22 22 48 23 100 2 39 6 94 9 123 4 33 2 58 -5 66 -8 10 -7 23 5 51 19
46 12 79 -22 102 -29 19 -138 42 -201 43 -34 0 -46 5 -59 25 -8 13 -13 29 -10
34 4 5 2 12 -4 16 -17 10 -12 -52 6 -69 18 -19 35 -23 129 -31 38 -3 89 -15
112 -25 37 -16 43 -23 43 -48 0 -49 -27 -71 -100 -83 -63 -10 -178 -5 -267 11
-45 8 -60 -3 -21 -14 43 -13 282 -19 321 -8 34 10 39 9 53 -14 11 -16 14 -35
10 -58 -17 -92 -88 -121 -291 -120 -77 0 -129 -3 -115 -7 49 -14 244 -10 301
7 30 9 59 20 65 25 17 14 24 0 24 -47 0 -95 -90 -143 -287 -152 -60 -3 -103
-9 -103 -15 0 -6 34 -8 98 -4 84 6 128 14 230 43 20 6 22 3 22 -35 0 -52 -28
-81 -109 -112 -42 -17 -79 -23 -148 -23 -89 -1 -93 0 -123 29 -28 27 -31 35
-29 80 1 31 -5 65 -15 89 -12 28 -16 52 -12 80 8 53 8 70 0 138 -7 59 8 118
28 118 7 0 7 4 0 13 -16 19 -25 83 -17 123 8 45 76 121 130 145 28 12 82 19
180 24 77 4 143 9 147 12 4 2 -12 28 -35 56 -53 65 -138 229 -166 321 -34 109
-23 196 26 225 36 22 55 8 92 -65z m2603 -35 c25 -17 51 -36 57 -43 8 -9 -32
-38 -162 -119 -94 -58 -172 -105 -173 -104 -2 1 34 75 79 164 l81 161 36 -14
c19 -8 56 -28 82 -45z m1405 -55 c-1 -1 -20 -9 -41 -18 l-39 -16 6 -143 c6
-135 32 -366 60 -526 11 -64 10 -88 -5 -176 -30 -179 -39 -294 -45 -565 -8
-383 20 -813 82 -1234 14 -94 25 -175 25 -182 0 -7 -25 -14 -62 -18 -176 -20
-483 -100 -825 -215 l-232 -78 -15 86 c-67 372 -74 957 -20 1716 9 127 20 240
25 251 4 12 20 25 36 29 47 11 91 53 122 114 87 175 313 454 704 869 l201 213
12 -53 c7 -29 12 -54 11 -54z m-1771 -329 c-40 -39 -52 -83 -42 -153 9 -65 57
-140 156 -245 169 -178 340 -266 410 -209 98 79 -113 350 -333 425 -15 6 -13
12 19 57 20 28 44 70 53 94 l16 44 72 -28 c293 -113 539 -441 469 -623 -29
-77 -89 -114 -199 -123 -256 -23 -605 222 -725 509 -36 88 -37 184 -2 222 27
29 93 64 123 65 14 0 10 -8 -17 -35z m246 17 c14 -14 -28 -105 -71 -154 -35
-41 -39 -58 -12 -58 32 0 154 -68 210 -117 69 -60 138 -153 151 -205 9 -32 8
-44 -5 -64 -45 -69 -216 16 -387 195 -146 152 -190 263 -138 348 32 53 83 74
168 70 40 -2 78 -9 84 -15z m-1632 -348 c415 -93 778 -218 972 -335 45 -27 82
-48 83 -47 1 2 48 99 105 216 57 116 107 212 110 212 4 0 14 -15 21 -32 7 -18
42 -71 77 -117 l64 -84 -17 -86 c-29 -148 -148 -589 -184 -683 l-10 -26 -77
30 c-229 89 -775 186 -1286 229 -171 15 -153 -3 -169 167 -13 144 5 373 47
576 6 28 7 28 58 22 28 -4 121 -23 206 -42z m1653 -358 l48 -28 -6 -66 c-30
-326 -89 -744 -186 -1327 -43 -260 -116 -677 -124 -712 -5 -21 -6 -21 -88 16
-97 45 -345 137 -472 175 -136 41 -140 43 -138 52 1 5 30 59 64 119 112 196
269 537 360 778 18 48 35 87 38 87 3 0 36 -9 73 -19 l68 -19 31 39 c34 44 39
39 -66 67 -48 12 -70 23 -69 33 1 7 27 95 59 194 65 207 131 448 170 620 14
66 28 126 30 133 3 7 34 -12 82 -51 43 -34 100 -75 126 -91z m140 -60 c65 -22
63 -17 42 -136 -49 -277 -85 -678 -85 -946 l0 -184 -27 0 c-30 0 -163 27 -170
34 -3 2 14 120 36 263 74 477 121 844 121 946 0 34 4 47 13 45 6 -2 38 -12 70
-22z m253 -91 c-18 -179 -36 -490 -47 -800 -6 -192 -13 -351 -14 -353 -7 -8
-138 -23 -176 -20 l-44 3 2 205 c4 278 33 614 78 885 27 160 12 142 116 141
l91 -1 -6 -60z m-802 -701 c33 -8 64 -19 68 -22 4 -4 -1 -17 -10 -29 -17 -22
-18 -22 -77 -7 -71 18 -76 22 -64 52 10 26 6 26 83 6z m541 -488 c72 0 146 5
166 11 l36 11 6 -87 c4 -47 3 -89 -2 -94 -15 -15 -146 -28 -226 -22 -108 8
-228 26 -239 36 -8 7 9 152 20 170 2 3 27 -1 56 -9 34 -9 100 -15 183 -16z
m-136 -187 c50 -7 136 -10 216 -7 l131 5 12 -176 c12 -174 31 -331 53 -424 9
-39 15 -47 28 -42 123 51 627 212 636 204 2 -2 8 -67 14 -144 29 -357 119
-938 206 -1315 18 -81 63 -235 98 -341 93 -278 228 -732 407 -1368 56 -201 69
-256 58 -263 -51 -33 -230 -56 -321 -41 l-48 8 -39 150 c-43 170 -138 464
-211 657 -85 226 -166 403 -335 733 -252 494 -531 1117 -834 1860 -82 199 -78
191 -86 183 -3 -4 21 -71 54 -151 l59 -144 12 -334 c25 -717 42 -1119 52
-1234 16 -191 124 -797 233 -1315 19 -90 32 -167 30 -170 -3 -3 -69 -5 -147
-5 -111 0 -153 4 -194 18 -29 10 -55 22 -58 26 -2 5 -16 109 -30 232 -64 550
-161 1136 -286 1729 -55 261 -199 850 -252 1033 -19 64 -33 117 -30 117 8 0
181 -69 246 -99 48 -22 69 -27 72 -18 5 14 115 636 115 650 0 5 12 7 28 4 15
-3 65 -11 111 -18z m229 -3696 l82 -6 0 -73 c0 -61 -3 -73 -17 -78 -48 -13
-111 -17 -172 -11 l-68 7 23 70 c13 38 24 79 24 90 0 16 4 19 23 14 12 -4 59
-9 105 -13z m86 -291 c5 -75 3 -118 -4 -126 -5 -7 -43 -16 -82 -20 -92 -8
-221 -35 -473 -96 -236 -57 -302 -70 -367 -70 -43 0 -50 3 -58 26 -17 45 -11
112 14 162 14 27 30 53 38 59 7 6 74 13 148 16 191 8 330 47 450 126 l55 36
136 0 136 0 7 -113z m1518 -52 c17 -52 43 -122 58 -156 l27 -60 -131 4 c-92 2
-152 -1 -200 -11 l-68 -15 7 32 c15 70 24 136 30 224 l8 92 86 1 c47 1 100 4
116 8 22 5 31 3 34 -9 1 -8 17 -58 33 -110z"/>
<path d="M3453 5680 c-12 -5 -29 -23 -38 -40 -46 -90 67 -175 139 -104 38 39
36 93 -5 128 -32 27 -58 31 -96 16z m96 -36 c12 -15 21 -34 21 -44 0 -10 -9
-29 -21 -44 -41 -52 -129 -23 -129 42 0 67 88 98 129 46z"/>
<path d="M3821 5219 c-139 -21 -255 -40 -257 -42 -3 -2 4 -25 13 -51 15 -38
21 -46 38 -42 11 3 124 23 250 46 127 23 234 45 238 49 4 4 10 24 14 44 7 46
30 46 -296 -4z m279 -4 c0 -29 19 -24 -245 -70 -110 -19 -212 -38 -226 -41
-23 -4 -28 -1 -38 27 -6 18 -10 33 -9 34 5 4 463 73 491 74 22 1 27 -3 27 -24z"/>
<path d="M3437 4780 c-50 -39 -42 -117 15 -146 60 -31 128 13 128 83 0 71 -85
109 -143 63z m105 -20 c24 -25 29 -36 24 -58 -14 -59 -80 -81 -123 -40 -48 45
-14 124 55 127 8 1 27 -13 44 -29z"/>
<path d="M4225 10424 c-168 -16 -295 -49 -382 -100 l-45 -26 7 -46 c12 -80 50
-187 66 -185 8 1 46 15 84 31 126 53 298 85 510 95 l50 2 6 45 c3 25 9 73 13
107 l7 61 -63 6 c-107 9 -211 13 -253 10z m279 -30 c19 -7 19 -12 0 -151 l-6
-43 -97 0 c-165 -1 -340 -35 -460 -91 -36 -16 -68 -26 -73 -21 -13 13 -51 179
-45 196 14 35 182 98 312 115 76 11 338 7 369 -5z"/>
<path d="M4073 10029 c-96 -47 -163 -166 -149 -265 35 -260 378 -320 493 -86
32 66 37 152 10 213 -22 53 -81 114 -132 138 -60 28 -163 28 -222 0z m223 -17
c46 -24 85 -63 109 -111 16 -32 16 -33 0 -27 -9 3 -54 9 -99 12 -103 8 -211
-14 -302 -61 l-64 -34 0 27 c1 36 35 111 68 145 28 29 68 54 112 68 40 13 133
3 176 -19z m0 -167 c14 -55 -38 -115 -100 -115 -49 0 -108 75 -86 110 10 16
63 28 127 29 48 1 53 -1 59 -24z m120 8 c19 -7 18 -88 -2 -146 -19 -57 -81
-120 -139 -143 -67 -25 -160 -16 -221 22 -55 34 -102 102 -106 153 -3 31 1 35
57 67 70 39 85 42 85 14 0 -37 28 -77 66 -95 75 -35 154 19 154 105 l0 42 46
-7 c26 -3 53 -9 60 -12z"/>
<path d="M3133 9815 c-124 -62 -155 -220 -65 -325 90 -106 234 -106 324 0 151
175 -51 428 -259 325z m214 -31 c21 -17 46 -45 56 -63 l19 -31 -89 0 c-104 0
-173 -17 -248 -59 l-55 -31 0 32 c0 41 30 106 61 135 47 43 80 54 151 51 57
-3 72 -8 105 -34z m76 -121 c10 -6 9 -51 -3 -95 -41 -147 -244 -187 -344 -68
-14 17 -29 43 -32 57 -7 27 -6 28 60 66 l31 17 14 -30 c17 -35 72 -64 104 -54
37 11 67 46 74 87 l6 38 41 -7 c22 -3 44 -8 49 -11z m-113 -18 c0 -33 -42 -75
-73 -75 -31 0 -77 36 -77 60 0 23 42 38 108 39 39 1 42 -1 42 -24z"/>
<path d="M4947 9700 c-55 -59 -109 -155 -122 -217 -4 -20 -3 -33 3 -33 6 0 13
17 17 38 8 49 56 137 75 137 21 0 19 -90 -2 -132 -9 -18 -13 -35 -8 -38 11 -7
50 98 50 134 0 16 -7 34 -15 41 -24 20 -18 35 30 79 25 23 45 44 45 46 0 16
-25 -2 -73 -55z"/>
<path d="M4236 8891 c-29 -31 -151 -110 -197 -126 -52 -19 -115 -18 -244 0
-121 18 -199 19 -228 4 -12 -6 -46 -30 -75 -52 l-53 -40 -65 23 c-80 28 -137
29 -171 4 -42 -31 -45 -57 -17 -110 20 -37 24 -56 19 -86 -9 -50 22 -114 69
-146 154 -105 508 -91 681 26 91 62 97 75 112 235 7 77 14 141 15 142 2 0 32
20 68 43 87 56 140 101 119 102 -9 0 -24 -9 -33 -19z m-410 -146 c72 -8 146
-12 165 -9 l34 6 -25 -21 c-48 -40 -206 -111 -305 -138 -90 -23 -119 -26 -278
-27 l-179 -1 -29 33 c-34 38 -37 64 -9 92 30 30 66 35 129 15 107 -33 120 -31
179 16 57 45 97 59 152 53 19 -2 94 -11 166 -19z m228 -77 c-11 -167 -14 -177
-51 -219 -45 -49 -151 -103 -249 -124 -57 -13 -107 -16 -207 -13 -151 5 -224
27 -286 83 -32 29 -35 38 -36 86 l0 54 105 -3 c120 -4 270 11 379 39 81 21
255 101 310 143 19 14 36 26 37 26 2 0 1 -33 -2 -72z"/>
</g>
</svg>
