<?xml version="1.0" standalone="no"?>
<!DOCTYPE svg PUBLIC "-//W3C//DTD SVG 20010904//EN"
 "http://www.w3.org/TR/2001/REC-SVG-20010904/DTD/svg10.dtd">
<svg version="1.0" xmlns="http://www.w3.org/2000/svg"
 width="512.000000pt" height="512.000000pt" viewBox="0 0 512.000000 512.000000"
 preserveAspectRatio="xMidYMid meet">

<g transform="translate(0.000000,512.000000) scale(0.100000,-0.100000)"
fill="#254388" stroke="none">
<path d="M2160 5101 c-147 -52 -262 -175 -300 -321 -6 -25 -25 -59 -42 -77
-41 -43 -49 -108 -19 -156 41 -67 42 -67 501 -67 359 0 416 2 446 16 48 23 74
63 74 114 0 41 -21 95 -40 102 -5 1 -17 29 -25 61 -42 162 -159 286 -314 333
-25 7 -47 14 -48 14 -2 0 -3 -59 -3 -130 0 -126 -1 -132 -25 -155 -46 -47
-135 -25 -150 38 -3 12 -6 72 -8 133 l-2 111 -45 -16z"/>
<path d="M1940 4300 c0 -20 38 -85 73 -125 81 -93 227 -145 353 -125 81 13
152 48 214 106 47 44 105 136 93 148 -11 11 -733 7 -733 -4z"/>
<path d="M1674 3904 c-149 -40 -273 -165 -321 -323 -16 -51 -17 -130 -18 -827
l0 -770 24 -35 c41 -61 86 -84 162 -84 56 0 72 4 107 29 24 16 50 46 62 71 20
41 20 63 26 776 4 458 10 739 17 747 14 18 45 15 57 -7 7 -13 10 -549 10
-1661 0 -1799 -4 -1678 58 -1744 35 -37 117 -76 162 -76 87 0 169 51 213 134
20 38 22 58 25 259 4 212 3 220 -20 270 l-23 52 0 500 c0 497 0 500 23 549 19
42 22 65 22 165 0 124 6 141 46 141 40 0 54 -26 54 -95 l0 -64 48 22 c39 18
70 22 181 25 l134 4 -7 -23 c-4 -13 -9 -57 -13 -96 l-6 -73 -110 0 -109 0 -39
-39 -39 -39 0 -477 0 -477 39 -39 39 -39 612 0 c604 0 612 0 641 21 60 42 59
35 59 534 0 499 1 492 -59 534 -25 18 -44 21 -133 21 l-104 0 -10 88 c-6 54
-20 108 -36 143 -25 55 -102 145 -143 167 -20 10 -20 24 -26 699 -6 752 -3
718 -65 827 -75 132 -256 236 -390 224 l-37 -3 -173 -340 -174 -340 0 242 0
241 40 70 c74 127 68 132 -171 132 -157 0 -190 -3 -203 -16 -22 -22 -21 -29
24 -114 l40 -75 -1 -240 0 -240 -172 343 -172 342 -50 -1 c-27 0 -73 -7 -101
-15z m1218 -464 c3 -30 6 -328 7 -662 1 -584 0 -607 -18 -613 -10 -3 -26 -14
-36 -25 -10 -11 -22 -20 -27 -20 -12 0 -10 1323 2 1355 8 21 16 26 38 23 25
-3 28 -7 34 -58z m328 -1606 l0 -54 -131 0 -132 0 6 51 c4 29 9 54 11 57 3 2
23 -3 46 -12 53 -21 107 -20 150 2 19 10 38 17 43 15 4 -3 7 -29 7 -59z"/>
<path d="M2360 347 c0 -195 9 -228 72 -283 80 -70 185 -81 273 -29 89 52 115
121 115 306 l0 127 -182 4 c-163 3 -188 5 -230 25 l-48 22 0 -172z"/>
</g>
</svg>
