<?xml version="1.0" standalone="no"?>
<!DOCTYPE svg PUBLIC "-//W3C//DTD SVG 20010904//EN"
 "http://www.w3.org/TR/2001/REC-SVG-20010904/DTD/svg10.dtd">
<svg version="1.0" xmlns="http://www.w3.org/2000/svg"
 width="490.000000pt" height="490.000000pt" viewBox="0 0 490.000000 490.000000"
 preserveAspectRatio="xMidYMid meet">

<g transform="translate(0.000000,490.000000) scale(0.100000,-0.100000)"
fill="#254388" stroke="none">
<path d="M2360 4145 l0 -144 -52 3 c-29 2 -56 4 -60 5 -5 0 -8 60 -8 131 0
105 -3 130 -14 130 -63 0 -244 -82 -326 -148 -179 -145 -314 -404 -359 -689
-5 -34 -22 -87 -36 -118 -32 -67 -31 -72 45 -166 76 -92 144 -161 231 -235
l77 -64 593 0 594 0 97 85 c99 86 233 234 264 290 16 30 15 33 -15 98 -17 36
-31 79 -31 95 0 46 -48 225 -86 319 -85 211 -228 379 -394 463 -55 28 -179 70
-206 70 -11 0 -14 -25 -14 -129 0 -140 0 -141 -60 -141 -60 0 -60 0 -60 151
l0 139 -90 0 -90 0 0 -145z"/>
<path d="M1587 3024 c-4 -4 -7 -69 -7 -144 0 -205 34 -321 124 -419 33 -36 47
-63 64 -126 67 -236 207 -422 387 -511 353 -174 782 24 949 440 20 48 38 101
41 119 4 18 23 48 44 70 91 90 131 221 131 424 0 73 -4 133 -8 133 -5 0 -19
-12 -33 -26 -34 -37 -190 -169 -216 -182 -16 -9 -189 -12 -630 -12 l-608 0
-116 120 c-63 66 -118 117 -122 114z"/>
<path d="M1963 1730 c-267 -61 -523 -185 -706 -343 -188 -162 -330 -444 -353
-701 l-7 -76 1552 0 1551 0 0 33 c0 54 -30 208 -56 285 -55 165 -165 337 -285
445 -182 164 -453 297 -730 358 l-93 20 -193 -193 -193 -193 -56 55 c-30 30
-117 117 -192 192 -75 76 -141 137 -147 137 -5 0 -47 -9 -92 -19z"/>
</g>
</svg>
